<svg width="109" height="22" viewBox="0 0 109 22" fill="none" xmlns="http://www.w3.org/2000/svg">
<g id="5f84417443f34a7de14f52e8_Logo%20-%20Meero.svg">
<path id="Vector" d="M20.7344 12.1255C19.2029 12.5995 15.7348 13.6624 13.2392 13.6624C10.2036 13.6624 13.964 9.71387 11.6279 9.71387C8.48501 9.71387 2.98791 12.9896 1.71992 13.7038C1.44252 13.8601 1.27246 14.1534 1.27246 14.4712V16.8733V20.9982L4.16343 16.8733H19.864C20.6122 16.8733 21.218 16.2675 21.218 15.5192V12.4816C21.218 12.2307 20.9747 12.0511 20.7344 12.1255Z" fill="#2F2F30"/>
<path id="Vector_2" d="M19.8649 2.5011H11.2462L3.92207 2.53086C3.81579 1.91121 3.27586 1.43506 2.62751 1.43506C1.90264 1.43506 1.30957 2.02813 1.30957 2.753V7.13301C1.30957 7.1373 1.31063 7.1415 1.31063 7.14681L1.30957 9.78699C1.31063 10.1112 1.66031 10.3131 1.94197 10.1526C3.91782 9.02491 10.1089 5.68436 14.1361 5.68436C17.2694 5.68436 12.4345 9.7275 15.5816 9.7275C17.4544 9.7275 19.8161 9.07059 20.779 8.63164C21.0469 8.50942 21.2179 8.24267 21.2179 7.94927V3.85521C21.219 3.10799 20.6121 2.5011 19.8649 2.5011Z" fill="#2F2F30"/>
<path id="Vector_3" d="M28.7412 17.0329V2.40482H31.9627V3.77807C32.9129 2.6344 34.1809 2.06152 35.7646 2.06152C36.7849 2.06152 37.6299 2.23795 38.2995 2.58976C38.968 2.94156 39.5579 3.52298 40.0681 4.33281C41.2117 2.81934 42.7698 2.06258 44.7414 2.06258C48.7017 2.06258 50.6828 4.23715 50.6828 8.58424V17.0339H47.1712V9.00621C47.1712 7.70421 46.9554 6.75724 46.5238 6.16735C46.0924 5.57747 45.393 5.28304 44.4247 5.28304C43.3683 5.28304 42.6115 5.63061 42.1545 6.32567C41.6963 7.02081 41.4678 8.18678 41.4678 9.82461V17.0329H37.9562V9.00621C37.9562 7.70421 37.7319 6.75724 37.2823 6.16735C36.8338 5.57747 36.1163 5.28304 35.13 5.28304C34.0736 5.28304 33.3296 5.62212 32.8991 6.29909C32.4676 6.97727 32.2518 8.15172 32.2518 9.82461V17.0329H28.7412Z" fill="#2F2F30"/>
<path id="Vector_4" d="M67.2655 11.2759H55.9375C56.149 12.1559 56.6103 12.8564 57.3235 13.375C58.0366 13.8948 58.9209 14.1541 59.9774 14.1541C60.7171 14.1541 61.3241 14.0489 61.7991 13.8374C62.2742 13.6258 62.7409 13.2475 63.1989 12.7023H67.0273C66.5873 14.0755 65.7157 15.1978 64.4137 16.0694C63.1107 16.9409 61.6589 17.3767 60.0571 17.3767C57.8389 17.3767 55.964 16.6465 54.4335 15.1851C52.902 13.7236 52.1367 11.9199 52.1367 9.77196C52.1367 7.62499 52.885 5.80219 54.3815 4.30673C55.8769 2.81026 57.6997 2.06201 59.8477 2.06201C62.0298 2.06201 63.8345 2.80175 65.2609 4.28016C66.6872 5.75865 67.3993 7.64308 67.3993 9.93036C67.3972 10.4054 67.3537 10.8539 67.2655 11.2759ZM55.8323 8.18728H63.9387C63.4806 6.25073 62.1435 5.28242 59.9253 5.28242C57.7592 5.28242 56.3956 6.25073 55.8323 8.18728Z" fill="#2F2F30"/>
<path id="Vector_5" d="M83.3719 11.2759H72.044C72.2555 12.1559 72.7168 12.8564 73.4299 13.375C74.1431 13.8948 75.0274 14.1541 76.0839 14.1541C76.8236 14.1541 77.4305 14.0489 77.9056 13.8374C78.3807 13.6258 78.8473 13.2475 79.3054 12.7023H83.1338C82.6938 14.0755 81.8223 15.1978 80.5203 16.0694C79.2172 16.9409 77.7653 17.3767 76.1636 17.3767C73.9454 17.3767 72.0706 16.6465 70.5401 15.1851C69.0084 13.7236 68.2432 11.9199 68.2432 9.77196C68.2432 7.62499 68.9915 5.80219 70.4879 4.30673C71.9834 2.81026 73.8062 2.06201 75.9542 2.06201C78.1362 2.06201 79.941 2.80175 81.3673 4.28016C82.7937 5.75865 83.5058 7.64308 83.5058 9.93036C83.5036 10.4054 83.4601 10.8539 83.3719 11.2759ZM71.9387 8.18728H80.0452C79.587 6.25073 78.25 5.28242 76.0318 5.28242C73.8657 5.28242 72.502 6.25073 71.9387 8.18728Z" fill="#2F2F30"/>
<path id="Vector_6" d="M84.9824 17.0324V2.40434H88.2043V3.82963C88.662 3.16105 89.1189 2.69875 89.5775 2.44367C90.0352 2.18858 90.624 2.06104 91.3458 2.06104H91.6363V5.44088C89.5406 5.44088 88.4941 6.59407 88.4941 8.89944V17.0324H84.9824Z" fill="#2F2F30"/>
<path id="Vector_7" d="M99.7672 2.06104C101.949 2.06104 103.795 2.80503 105.299 4.29197C106.804 5.77997 107.557 7.59744 107.557 9.74442C107.557 11.8393 106.8 13.6345 105.287 15.1309C103.773 16.6274 101.942 17.3757 99.7946 17.3757C97.6466 17.3757 95.8123 16.6327 94.2892 15.1447C92.766 13.6579 92.0049 11.8489 92.0049 9.71887C92.0049 7.60593 92.7617 5.80226 94.2754 4.30577C95.7892 2.80929 97.6192 2.06104 99.7672 2.06104ZM99.7672 5.28257C98.598 5.28257 97.5969 5.71405 96.7646 6.57608C95.9323 7.43905 95.5157 8.48597 95.5157 9.71784C95.5157 10.9497 95.9314 11.9977 96.7646 12.8596C97.5969 13.7227 98.598 14.1531 99.7672 14.1531C100.953 14.1531 101.963 13.7216 102.796 12.8596C103.629 11.9977 104.045 10.9497 104.045 9.71784C104.045 8.48597 103.629 7.43803 102.796 6.57608C101.964 5.71405 100.954 5.28257 99.7672 5.28257Z" fill="#2F2F30"/>
</g>
</svg>
