<svg width="98" height="31" viewBox="0 0 98 31" fill="none" xmlns="http://www.w3.org/2000/svg">
<g id="5f84417443f34a71464f52eb_Logo%20-%20Spotify.svg" clip-path="url(#clip0_2_55)">
<path id="Vector" d="M15.6536 0.078125C7.36935 0.078125 0.65332 6.79397 0.65332 15.0782C0.65332 23.3629 7.36935 30.0781 15.6536 30.0781C23.9387 30.0781 30.6541 23.3629 30.6541 15.0782C30.6541 6.79451 23.9387 0.0788415 15.6534 0.0788415L15.6536 0.078125ZM22.5326 21.7125C22.2639 22.1532 21.6871 22.2929 21.2465 22.0224C17.7246 19.8711 13.291 19.3839 8.06954 20.5769C7.56638 20.6916 7.06483 20.3763 6.9502 19.873C6.83502 19.3696 7.14902 18.8681 7.65344 18.7534C13.3675 17.448 18.2688 18.0101 22.2227 20.4264C22.6634 20.6969 22.8031 21.2719 22.5326 21.7125ZM24.3686 17.6282C24.0301 18.1785 23.31 18.3523 22.7601 18.0137C18.728 15.5353 12.5819 14.8176 7.81267 16.2652C7.19416 16.452 6.5409 16.1035 6.35318 15.486C6.1669 14.8676 6.51565 14.2156 7.13309 14.0275C12.5807 12.3745 19.3532 13.1752 23.9835 16.0206C24.5334 16.3591 24.7072 17.0791 24.3686 17.6282ZM24.5263 13.3751C19.6917 10.5036 11.7154 10.2396 7.09959 11.6405C6.35838 11.8653 5.57453 11.4468 5.34992 10.7056C5.1253 9.9641 5.54337 9.1808 6.28511 8.95543C11.5837 7.34692 20.3921 7.6577 25.9582 10.962C26.6263 11.3577 26.8448 12.2187 26.449 12.8845C26.0548 13.5512 25.1915 13.7709 24.527 13.3751H24.5263ZM41.4641 13.9254C38.874 13.3077 38.4137 12.8743 38.4137 11.9635C38.4137 11.103 39.2233 10.5238 40.4287 10.5238C41.5966 10.5238 42.7537 10.9636 43.9682 11.8689C44.0041 11.8962 44.0507 11.9072 44.0954 11.9001C44.142 11.8932 44.1814 11.8684 44.2082 11.8309L45.4729 10.0483C45.5248 9.97482 45.5105 9.87365 45.4406 9.81755C43.9951 8.65812 42.3686 8.09443 40.4664 8.09443C37.6702 8.09443 35.716 9.77262 35.716 12.1737C35.716 14.7487 37.4016 15.6604 40.3142 16.3642C42.7914 16.935 43.2105 17.4132 43.2105 18.268C43.2105 19.2156 42.3651 19.8049 41.0038 19.8049C39.4919 19.8049 38.2578 19.2944 36.8785 18.1014C36.8445 18.071 36.7979 18.0585 36.755 18.0603C36.7084 18.0638 36.6672 18.0853 36.6385 18.1194L35.2198 19.8067C35.1608 19.8783 35.1679 19.9822 35.236 20.0431C36.8409 21.4762 38.8149 22.232 40.9464 22.232C43.9593 22.232 45.9063 20.5859 45.9063 18.037C45.9117 15.8863 44.6238 14.6951 41.4694 13.9277L41.4641 13.9254ZM52.7237 11.3711C51.418 11.3711 50.3468 11.8855 49.4619 12.9397V11.7531C49.4619 11.6595 49.3867 11.5832 49.2935 11.5832H46.9739C46.8808 11.5832 46.8055 11.6595 46.8055 11.7531V24.9368C46.8055 25.03 46.8808 25.1069 46.9739 25.1069H49.2935C49.3867 25.1069 49.4619 25.03 49.4619 24.9368V20.7757C50.3468 21.7663 51.418 22.2517 52.7237 22.2517C55.1509 22.2517 57.6084 20.3835 57.6084 16.812C57.612 13.2397 55.1545 11.3709 52.7255 11.3709L52.7237 11.3711ZM54.9108 16.812C54.9108 18.6298 53.7914 19.8998 52.1864 19.8998C50.6012 19.8998 49.4046 18.5725 49.4046 16.812C49.4046 15.0512 50.6012 13.7242 52.1864 13.7242C53.7644 13.7241 54.9108 15.0225 54.9108 16.812ZM63.9046 11.3711C60.7789 11.3711 58.3303 13.7778 58.3303 16.8508C58.3303 19.8909 60.7627 22.2715 63.867 22.2715C67.0034 22.2715 69.4592 19.8729 69.4592 16.812C69.4592 13.7613 67.0195 11.3715 63.9046 11.3715V11.3711ZM63.9046 19.9177C62.2424 19.9177 60.9884 18.5815 60.9884 16.8111C60.9884 15.0325 62.1993 13.7419 63.867 13.7419C65.5399 13.7419 66.801 15.0777 66.801 16.8499C66.801 18.6281 65.5829 19.9177 63.9046 19.9177ZM76.1336 11.5832H73.5808V8.9741C73.5808 8.88058 73.5056 8.8043 73.4124 8.8043H71.0928C70.9996 8.8043 70.9226 8.88058 70.9226 8.9741V11.5832H69.8084C69.7154 11.5832 69.6401 11.6595 69.6401 11.7531V13.7463C69.6401 13.8397 69.7154 13.9162 69.8084 13.9162H70.9226V19.0741C70.9226 21.1572 71.9597 22.2141 74.0071 22.2141C74.8382 22.2141 75.5279 22.0422 76.1779 21.6732C76.2319 21.6445 76.2641 21.5872 76.2641 21.5262V19.6276C76.2641 19.5703 76.2334 19.5148 76.1831 19.4843C76.1336 19.4521 76.0706 19.4502 76.0189 19.4771C75.5726 19.701 75.1409 19.8049 74.6573 19.8049C73.9139 19.8049 73.5808 19.4664 73.5808 18.7104V13.9171H76.1336C76.2266 13.9171 76.3016 13.8409 76.3016 13.7472V11.7542C76.3054 11.6605 76.2304 11.5843 76.1351 11.5843L76.1336 11.5832ZM85.0249 11.5934V11.2729C85.0249 10.3302 85.3871 9.9098 86.1964 9.9098C86.6801 9.9098 87.0686 10.0058 87.5036 10.1509C87.5576 10.1677 87.6131 10.1593 87.6559 10.1273C87.7009 10.0952 87.7264 10.0438 87.7264 9.98938V8.0351C87.7264 7.9604 87.6799 7.89433 87.6064 7.87228C87.1474 7.73563 86.5601 7.59538 85.6789 7.59538C83.5384 7.59538 82.4044 8.8016 82.4044 11.0823V11.5732H81.2899C81.1969 11.5732 81.1204 11.6494 81.1204 11.7429V13.7463C81.1204 13.8397 81.1969 13.9162 81.2899 13.9162H82.4044V21.8702C82.4044 21.9652 82.4816 22.0404 82.5746 22.0404H84.8921C84.9874 22.0404 85.0624 21.9652 85.0624 21.8702V13.9167H87.2284L90.5456 21.8702C90.1691 22.7049 89.7986 22.8715 89.2931 22.8715C88.8851 22.8715 88.4531 22.7496 88.0144 22.5079C87.9731 22.4864 87.9229 22.4828 87.8801 22.4953C87.8351 22.5114 87.7976 22.5437 87.7796 22.5867L86.9936 24.3116C86.9561 24.394 86.9884 24.489 87.0671 24.5319C87.8876 24.9762 88.6271 25.1661 89.5421 25.1661C91.2551 25.1661 92.2024 24.3672 93.0356 22.2213L97.0586 11.8255C97.0796 11.7733 97.0729 11.7141 97.0406 11.6677C97.0099 11.6217 96.9581 11.5939 96.9026 11.5939H94.4876C94.4149 11.5939 94.3504 11.64 94.3271 11.7078L91.8529 18.7713L89.1446 11.7032C89.1199 11.6374 89.0569 11.5939 88.9871 11.5939H85.0249V11.5934ZM79.8701 11.5832H77.5504C77.4574 11.5832 77.3801 11.6595 77.3801 11.7531V21.8702C77.3801 21.9652 77.4574 22.0404 77.5504 22.0404H79.8701C79.9631 22.0404 80.0396 21.9652 80.0396 21.8702V11.7539C80.0396 11.6602 79.9646 11.5839 79.8701 11.5839V11.5832ZM78.7234 6.97632C77.8046 6.97632 77.0591 7.72003 77.0591 8.63877C77.0591 9.55797 77.8046 10.3027 78.7234 10.3027C79.6421 10.3027 80.3854 9.55797 80.3854 8.63877C80.3854 7.72025 79.6406 6.97632 78.7234 6.97632Z" fill="#2F2F30"/>
</g>
<defs>
<clipPath id="clip0_2_55">
<rect width="96.75" height="30" fill="white" transform="translate(0.609375 0.078125)"/>
</clipPath>
</defs>
</svg>
