<svg width="162" height="19" viewBox="0 0 162 19" fill="none" xmlns="http://www.w3.org/2000/svg">
<g id="5f84417443f34a62084f52ea_Logo%20-%20VanMoof.svg" clip-path="url(#clip0_2_49)">
<g id="Group">
<path id="Vector" d="M160.409 0.43815H144.389C144.209 0.43815 144.119 0.528166 144.119 0.708166V16.7281C144.119 16.9081 144.209 16.9981 144.389 16.9981H145.469C145.649 16.9981 145.739 16.9081 145.739 16.7281V9.79815C145.739 9.61815 145.829 9.52815 146.009 9.52815H152.939C153.119 9.52815 153.209 9.43817 153.209 9.25817V8.17815C153.209 7.99815 153.119 7.90816 152.939 7.90816H146.009C145.829 7.90816 145.739 7.81814 145.739 7.63814V2.41816C145.739 2.23816 145.829 2.14814 146.009 2.14814H160.409C160.589 2.14814 160.679 2.05815 160.679 1.87815V0.798144C160.679 0.618145 160.589 0.43815 160.409 0.43815ZM128.099 0.43815C125.849 0.43815 123.779 1.33816 122.249 2.86816C120.719 4.39816 119.819 6.55816 119.819 8.71816C119.819 13.3081 123.509 16.9981 128.099 16.9981C132.689 16.9981 136.379 13.3081 136.379 8.71816C136.469 4.21816 132.689 0.43815 128.099 0.43815ZM132.779 13.3981C131.519 14.6581 129.899 15.3781 128.099 15.3781C126.299 15.3781 124.679 14.6581 123.419 13.3981C122.159 12.1381 121.439 10.5181 121.439 8.71816C121.439 6.91816 122.159 5.29814 123.419 4.03814C124.679 2.77814 126.299 2.05816 128.099 2.05816C129.899 2.05816 131.519 2.77814 132.779 4.03814C134.039 5.29814 134.759 6.91816 134.759 8.71816C134.759 10.5181 134.039 12.2281 132.779 13.3981ZM103.889 0.43815C101.639 0.43815 99.5692 1.33816 98.0392 2.86816C96.5092 4.39816 95.6092 6.55816 95.6092 8.71816C95.6092 13.3081 99.2992 16.9981 103.889 16.9981C108.479 16.9981 112.169 13.3081 112.169 8.71816C112.169 4.21816 108.389 0.43815 103.889 0.43815ZM108.569 13.3981C107.309 14.6581 105.689 15.3781 103.889 15.3781C102.089 15.3781 100.469 14.6581 99.2092 13.3981C97.9492 12.1381 97.2292 10.5181 97.2292 8.71816C97.2292 6.91816 97.9492 5.29814 99.2092 4.03814C100.469 2.77814 102.089 2.05816 103.889 2.05816C105.689 2.05816 107.309 2.77814 108.569 4.03814C109.829 5.29814 110.549 6.91816 110.549 8.71816C110.459 10.5181 109.829 12.2281 108.569 13.3981ZM17.6692 0.348145H16.4092C16.2292 0.348145 16.1392 0.43815 16.0492 0.43815C16.0492 0.52815 15.9592 0.618145 15.8692 0.798144L9.65924 13.2181C9.56924 13.3081 9.47922 13.3081 9.38922 13.2181L3.17923 0.798144C3.08923 0.708144 2.99922 0.52815 2.99922 0.43815C2.99922 0.34815 2.81922 0.348145 2.63922 0.348145H1.37923C1.19923 0.348145 1.19922 0.438161 1.19922 0.618161L1.28922 0.708166C1.37922 0.798166 1.46924 1.06817 1.55924 1.15816L9.02923 16.0981L9.29922 16.5481L9.38922 16.8181C9.47922 16.9081 9.56924 16.9081 9.65924 16.8181L9.74922 16.5481C9.83922 16.4581 9.92923 16.1881 10.0192 16.0981L17.4892 1.15816C17.5792 1.06817 17.6692 0.798166 17.7592 0.708166L17.8492 0.618161C17.8492 0.438161 17.8492 0.348145 17.6692 0.348145ZM38.0092 16.8181C37.9192 16.6381 37.8292 16.4581 37.7392 16.3681L30.2692 1.42815L29.9992 0.978155L29.9092 0.708166C29.8192 0.528166 29.7292 0.528166 29.6392 0.708166L29.5492 0.978155C29.4592 1.06815 29.3692 1.33815 29.2792 1.42815L21.8092 16.3681C21.7192 16.5481 21.6292 16.7281 21.5392 16.8181L21.4492 16.9081C21.3592 16.9981 21.4492 17.1781 21.6292 17.1781H22.8892C23.0692 17.1781 23.1592 17.0881 23.2492 17.0881C23.2492 16.9981 23.3392 16.9081 23.4292 16.7281L24.8692 13.9381V14.0281H34.6792L36.0292 16.8181C36.1192 16.9081 36.2092 17.0881 36.2092 17.1781C36.2092 17.2681 36.3892 17.2681 36.5692 17.2681H37.8292C38.0092 17.2681 38.0092 17.1781 38.0092 16.9981V16.8181ZM25.6792 12.2281L29.6392 4.21816C29.7292 4.12816 29.8192 4.12816 29.9092 4.21816L33.8692 12.2281H25.6792ZM61.9492 0.528156H60.8692C60.6892 0.528156 60.5992 0.618145 60.5992 0.798144V13.4881C60.5992 13.6681 60.5092 13.6681 60.4192 13.5781L46.6492 0.798144C46.5592 0.708144 46.3792 0.618155 46.3792 0.528156C46.3792 0.528156 46.1992 0.43815 46.0192 0.43815C45.8392 0.43815 45.7492 0.528161 45.7492 0.618161V16.8181C45.7492 16.9081 45.8392 16.9981 46.0192 16.9981H47.0992C47.2792 16.9981 47.3692 16.9081 47.3692 16.8181V4.12815C47.3692 3.94815 47.4592 3.94814 47.5492 4.03814L61.3192 16.8181C61.4092 16.9081 61.5892 16.9981 61.5892 17.0881C61.5892 17.0881 61.7692 17.1781 61.9492 17.1781C62.1292 17.1781 62.2192 17.0881 62.2192 16.9981V0.888149C62.2192 0.618149 62.1292 0.528156 61.9492 0.528156ZM87.7792 0.43815H86.4292C86.2492 0.43815 86.1592 0.528156 86.0692 0.528156C86.0692 0.618155 85.9792 0.708149 85.8892 0.888149L79.6792 13.3081C79.5892 13.3981 79.4992 13.3981 79.4092 13.3081L73.1992 0.888149C73.1092 0.798149 73.0192 0.618155 73.0192 0.528156C73.0192 0.438156 72.8392 0.43815 72.6592 0.43815H71.3992C71.3092 0.43815 71.2192 0.528161 71.2192 0.618161V16.7281C71.2192 16.9081 71.3092 16.9981 71.4892 16.9981H72.5692C72.7492 16.9981 72.8392 16.9081 72.8392 16.7281V3.94814L78.9592 16.1881C79.0492 16.2781 79.1392 16.5481 79.2292 16.6381L79.3192 16.9081C79.4092 17.0881 79.4992 17.0881 79.5892 16.9081L79.6792 16.6381C79.7692 16.5481 79.8592 16.2781 79.9492 16.1881L86.0692 3.94814V4.03814V16.7281C86.0692 16.9081 86.1592 16.9981 86.3392 16.9981H87.4192C87.5992 16.9981 87.6892 16.9081 87.6892 16.7281V0.708166C87.6892 0.708166 87.6892 0.708161 87.6892 0.618161C87.9592 0.528161 87.8692 0.43815 87.7792 0.43815Z" fill="#2F2F30"/>
</g>
</g>
<defs>
<clipPath id="clip0_2_49">
<rect width="161" height="18" fill="white" transform="translate(0.5 0.078125)"/>
</clipPath>
</defs>
</svg>
